<svg width="185" height="44" viewBox="0 0 185 44" fill="none" xmlns="http://www.w3.org/2000/svg">
<path d="M43.5221 6.88595C36.6921 4.63295 29.2641 2.37995 22.3931 0.126951C21.9199 -0.0286667 21.4097 -0.0311047 20.9351 0.119963L1.40607 6.34094C1.13453 6.42965 0.884687 6.5745 0.672759 6.76605C0.460831 6.9576 0.291558 7.19159 0.17594 7.45282C0.0603226 7.71404 0.000942134 7.99665 0.00165428 8.28232C0.00236643 8.56798 0.0631568 8.85032 0.180075 9.11096L3.08507 15.586C3.28719 16.0365 3.63238 16.4077 4.06708 16.642L21.0121 25.775C21.2001 25.8764 21.3572 26.0268 21.4667 26.2102C21.5762 26.3937 21.6341 26.6033 21.6341 26.817V28.465C21.6341 28.5507 21.6116 28.6349 21.5688 28.7092C21.5261 28.7835 21.4646 28.8453 21.3905 28.8884C21.3165 28.9315 21.2324 28.9544 21.1467 28.9549C21.0609 28.9553 20.9766 28.9333 20.9021 28.891L4.40208 19.5049C4.31199 19.4536 4.21001 19.4269 4.10634 19.4274C4.00266 19.4278 3.90093 19.4555 3.81132 19.5077C3.72172 19.5598 3.64737 19.6346 3.59573 19.7245C3.54409 19.8144 3.51697 19.9163 3.51707 20.02V31.864C3.51706 32.0607 3.56606 32.2543 3.65964 32.4273C3.75323 32.6003 3.88844 32.7473 4.05308 32.8549L20.6531 43.705C20.9447 43.8958 21.2861 43.9966 21.6346 43.9948C21.9831 43.993 22.3234 43.8887 22.6131 43.6949L39.1061 32.857C39.2702 32.7492 39.4049 32.6022 39.4981 32.4294C39.5914 32.2566 39.6401 32.0633 39.6401 31.8669V27.636C39.6401 27.4248 39.5836 27.2175 39.4765 27.0355C39.3695 26.8535 39.2157 26.7035 39.0311 26.601L22.1561 17.214C22.0349 17.1467 21.9339 17.0483 21.8636 16.9289C21.7933 16.8095 21.7562 16.6735 21.7561 16.5349V14.628C21.756 14.5663 21.772 14.5058 21.8024 14.4522C21.8329 14.3986 21.8767 14.3539 21.9297 14.3224C21.9827 14.2909 22.0429 14.2738 22.1045 14.2727C22.1661 14.2715 22.227 14.2864 22.2811 14.3159L38.8901 23.326C39.0077 23.3898 39.1382 23.4261 39.2719 23.4323C39.4055 23.4384 39.5388 23.4142 39.6618 23.3615C39.7848 23.3088 39.8942 23.2289 39.9819 23.1278C40.0696 23.0267 40.1332 22.9071 40.1681 22.778L44.1431 8.02795C44.2062 7.79427 44.1774 7.54528 44.0626 7.33215C43.9479 7.11902 43.7559 6.95794 43.5261 6.88196L43.5221 6.88595ZM10.2061 35.364L5.29008 31.6769C5.14285 31.5666 5.02335 31.4235 4.94108 31.2589C4.8588 31.0944 4.816 30.9129 4.81608 30.7289V24.193C4.8179 24.1639 4.83033 24.1365 4.85101 24.1159C4.8717 24.0954 4.8992 24.0832 4.9283 24.0816C4.9574 24.08 4.98607 24.0891 5.00889 24.1072C5.0317 24.1254 5.04707 24.1512 5.05208 24.18L5.71708 30.0879C5.74584 30.3518 5.86241 30.5983 6.04808 30.788L10.3601 35.188C10.3837 35.2086 10.3981 35.2378 10.4002 35.2692C10.4022 35.3005 10.3918 35.3313 10.3711 35.3549C10.3504 35.3786 10.3212 35.393 10.2899 35.3951C10.2585 35.3971 10.2277 35.3867 10.2041 35.366L10.2061 35.364ZM37.3681 6.78595L22.1981 3.49194C21.8279 3.41163 21.4438 3.42125 21.0781 3.51996L2.33008 8.58597L3.90707 13.028C3.92033 13.0565 3.92173 13.0891 3.91095 13.1186C3.90017 13.1482 3.87809 13.1722 3.84958 13.1855C3.82107 13.1987 3.78845 13.2001 3.75892 13.1893C3.72938 13.1785 3.70534 13.1565 3.69208 13.128L1.24007 8.60596C1.19948 8.53118 1.17578 8.4484 1.17063 8.36346C1.16548 8.27853 1.17902 8.19351 1.2103 8.11438C1.24157 8.03524 1.28981 7.96393 1.35162 7.90545C1.41344 7.84698 1.48733 7.80279 1.56808 7.77597L20.9371 1.59796C21.4097 1.44541 21.9184 1.44541 22.3911 1.59796C27.1311 3.14396 32.5601 4.96196 37.4291 6.55896C37.4567 6.56912 37.4796 6.58925 37.4931 6.61542C37.5067 6.64158 37.51 6.67189 37.5023 6.70035C37.4947 6.7288 37.4767 6.75335 37.4518 6.76919C37.427 6.78504 37.3971 6.79102 37.3681 6.78595Z" fill="url(#paint0_linear_1_3357)"/>
<path d="M60.2211 16.2479C60.2211 12.6479 63.0291 9.63896 67.6861 9.63896C68.9424 9.57674 70.1981 9.7725 71.3759 10.2142C72.5536 10.6558 73.6284 11.334 74.5341 12.207L72.2741 15.3569C71.7353 14.7732 71.0773 14.3121 70.3447 14.005C69.6121 13.6979 68.8221 13.5519 68.0281 13.5769C65.9391 13.5769 64.6721 14.638 64.6721 16.213C64.6721 21.178 75.5271 19.6029 75.5271 27.5809C75.5271 31.6219 72.0001 34.3609 67.5151 34.3609C64.4331 34.3609 60.8381 33.0259 59.6741 30.5939L62.0741 27.7179C62.7373 28.5467 63.5754 29.2189 64.5283 29.6864C65.4813 30.154 66.5257 30.4055 67.5871 30.423C69.5731 30.423 71.0801 29.4299 71.0801 27.6149C71.0761 22.8909 60.2211 24.0549 60.2211 16.2479Z" fill="#4E67EB"/>
<path d="M99.769 24.0549C99.769 31.3829 95.2831 34.3619 90.2501 34.3619C84.2921 34.3619 80.05 30.8349 80.05 23.8159V10.0159H84.2621V22.9249C84.2621 27.4109 86.1111 30.4249 90.2541 30.4249C93.8841 30.4249 95.596 27.857 95.596 23.2V10.0159H99.773L99.769 24.0549Z" fill="#4E67EB"/>
<path d="M106.103 10.0159H119.971V13.9539H110.315V19.9119H118.944V23.8499H110.315V30.0499H120.315V33.9879H106.105L106.103 10.0159Z" fill="#4E67EB"/>
<path d="M133.633 9.80994H135.174L145.618 33.9829H143.598L140.105 25.8329H128.599L125.107 33.9829H123.189L133.633 9.80994ZM129.353 24.0549H139.317L134.352 12.4119L129.353 24.0549Z" fill="#4E67EB"/>
<path d="M150.136 33.985V10.016C151.471 10.016 154.621 9.94696 155.991 9.94696C162.634 9.94696 164.517 13.6109 164.517 17.1719C164.517 20.9039 161.949 24.4999 155.991 24.4999C154.861 24.4999 153.391 24.4659 152.019 24.3629V33.985H150.136ZM152.019 11.796V22.5479C153.354 22.6479 154.553 22.7189 155.919 22.7189C160.268 22.7189 162.528 20.4249 162.528 17.1379C162.528 14.0219 160.679 11.7279 156.159 11.7279C155.101 11.7279 153.149 11.762 152.019 11.796Z" fill="#4E67EB"/>
<path d="M170.167 33.985V10.016C171.502 10.016 174.652 9.94696 176.022 9.94696C182.665 9.94696 184.548 13.6109 184.548 17.1719C184.548 20.9039 181.98 24.4999 176.022 24.4999C174.892 24.4999 173.422 24.4659 172.05 24.3629V33.985H170.167ZM172.05 11.796V22.5479C173.385 22.6479 174.584 22.7189 175.95 22.7189C180.299 22.7189 182.559 20.4249 182.559 17.1379C182.559 14.0219 180.71 11.7279 176.19 11.7279C175.132 11.7279 173.18 11.762 172.05 11.796Z" fill="#4E67EB"/>
<defs>
<linearGradient id="paint0_linear_1_3357" x1="7.73213" y1="3.74727" x2="40.7651" y2="37.0537" gradientUnits="userSpaceOnUse">
<stop offset="0.092" stop-color="#403FBE"/>
<stop offset="0.5" stop-color="#4F67EB"/>
<stop offset="0.582" stop-color="#4978DE"/>
<stop offset="0.846" stop-color="#37AEBA"/>
<stop offset="0.975" stop-color="#31C3AC"/>
</linearGradient>
</defs>
</svg>
